<svg id="Layer_1" data-name="Layer 1" xmlns="http://www.w3.org/2000/svg" viewBox="0 0 1500 1000"><defs><style>.cls-1{fill:#001c33;}.cls-2{fill:#3cf5f7;}.cls-3{fill:#c58ace;}.cls-4{fill:#f57a72;}.cls-5{fill:#8193f5;}.cls-6{fill:#f4ce21;}</style></defs><title>3</title><rect class="cls-1" width="1500" height="1000"/><path class="cls-2" d="M87.62,384.07H70.77A24.87,24.87,0,0,1,46.84,407v16.81A41.66,41.66,0,0,0,87.62,384.07Z" transform="translate(0)"/><path class="cls-3" d="M85.46,705.49h0a17.33,17.33,0,0,0-24.53,0h0a17.33,17.33,0,0,0,0,24.53h0a17.33,17.33,0,0,0,24.53,0h0A17.33,17.33,0,0,0,85.46,705.49Z" transform="translate(0)"/><path class="cls-4" d="M225.72,513.1a24.85,24.85,0,0,1,49.68,0h16.81a41.66,41.66,0,0,0-83.3,0Z" transform="translate(0)"/><path class="cls-5" d="M142.42,948.84a24.85,24.85,0,0,1,49.67,0h16.82a41.66,41.66,0,0,0-83.3,0Z" transform="translate(0)"/><path class="cls-5" d="M560.89,513.27A24.86,24.86,0,0,1,606,534.09l15.26,7a41.66,41.66,0,0,0-75.63-34.9Z" transform="translate(0)"/><path class="cls-5" d="M1327.3,226.94A24.85,24.85,0,0,1,1363,192.36L1375,180.65a41.66,41.66,0,0,0-59.8,58Z" transform="translate(0)"/><path class="cls-6" d="M707.36,157.78a24.85,24.85,0,0,1,45.15,20.72l15.28,7a41.66,41.66,0,0,0-75.71-34.75Z" transform="translate(0)"/><path class="cls-6" d="M1404.1,624.2A24.85,24.85,0,0,1,1364,653.55l-13.57,9.93a41.66,41.66,0,0,0,67.21-49.21Z" transform="translate(0)"/><path class="cls-3" d="M397.2,873.65a24.85,24.85,0,0,1-34.83-35.42l-11.79-12A41.66,41.66,0,0,0,409,885.64Z" transform="translate(0)"/><path class="cls-5" d="M800,813.8v16.85a24.85,24.85,0,0,1,22.91,23.93h16.82A41.67,41.67,0,0,0,800,813.8Z" transform="translate(0)"/><path class="cls-2" d="M1160.25,412.93v16.85a24.85,24.85,0,0,1,22.91,23.93H1200A41.66,41.66,0,0,0,1160.25,412.93Z" transform="translate(0)"/><path class="cls-6" d="M228.42,183.75H211.57a24.84,24.84,0,0,1-23.93,22.91v16.82A41.67,41.67,0,0,0,228.42,183.75Z" transform="translate(0)"/><path class="cls-4" d="M423.91,774l36.58,17.51a41.65,41.65,0,0,0-19-54.31Z" transform="translate(0)"/><path class="cls-3" d="M1107.66,237.49h40.56a41.65,41.65,0,0,0-40.56-40.8Z" transform="translate(0)"/><path class="cls-5" d="M421.3,120.27h40.56A41.65,41.65,0,0,0,421.3,79.48Z" transform="translate(0)"/><path class="cls-3" d="M1232.86,884.22l34.9,20.67a41.65,41.65,0,0,0-14.1-55.77Z" transform="translate(0)"/><path class="cls-3" d="M221,350.84H261.6A41.66,41.66,0,0,0,221,310Z" transform="translate(0)"/><path class="cls-4" d="M871.25,384h40.56a41.65,41.65,0,0,0-40.56-40.8Z" transform="translate(0)"/><path class="cls-5" d="M1119.68,656.55h40.57a41.66,41.66,0,0,0-40.57-40.8Z" transform="translate(0)"/><path class="cls-6" d="M723.84,649.3,759,676.92c13.36-17.81,9-44.12-10-59.71Z" transform="translate(0)"/><polygon class="cls-5" points="457.93 333.14 498.49 333.14 457.93 292.34 457.93 333.14"/><polygon class="cls-5" points="67.22 541.82 67.22 582.38 108.01 541.82 67.22 541.82"/><polygon class="cls-3" points="1260.71 565.51 1301.27 565.51 1260.71 524.71 1260.71 565.51"/><rect class="cls-2" x="389.54" y="366.72" width="34.7" height="34.7" transform="translate(390.75 -175.22) rotate(45)"/><path class="cls-3" d="M436.5,566h0A17.35,17.35,0,0,0,412,566h0a17.35,17.35,0,0,0,0,24.54h0a17.35,17.35,0,0,0,24.53,0h0A17.35,17.35,0,0,0,436.5,566Z" transform="translate(0)"/><path class="cls-2" d="M1449.3,804.57h0a17.36,17.36,0,0,0-24.54,0h0a17.35,17.35,0,0,0,0,24.54h0a17.35,17.35,0,0,0,24.54,0h0A17.36,17.36,0,0,0,1449.3,804.57Z" transform="translate(0)"/><path class="cls-5" d="M1212.24,112.46h0a17.36,17.36,0,0,0-24.54,0h0a17.36,17.36,0,0,0,0,24.54h0a17.35,17.35,0,0,0,24.54,0h0A17.36,17.36,0,0,0,1212.24,112.46Z" transform="translate(0)"/><path class="cls-5" d="M609.59,685.09h0a17.35,17.35,0,0,0-24.54,0h0a17.35,17.35,0,0,0,0,24.53h0a17.35,17.35,0,0,0,24.54,0h0A17.35,17.35,0,0,0,609.59,685.09Z" transform="translate(0)"/><path class="cls-6" d="M883.52,87.61h0a17.35,17.35,0,0,0-24.54,0h0a17.35,17.35,0,0,0,0,24.53h0a17.35,17.35,0,0,0,24.54,0h0A17.35,17.35,0,0,0,883.52,87.61Z" transform="translate(0)"/><path class="cls-3" d="M1014.47,503.94h0a17.35,17.35,0,0,0-24.53,0h0a17.35,17.35,0,0,0,0,24.54h0a17.33,17.33,0,0,0,24.53,0h0A17.35,17.35,0,0,0,1014.47,503.94Z" transform="translate(0)"/><path class="cls-3" d="M155.22,714.85h0a17.35,17.35,0,0,0-24.53,0h0a17.35,17.35,0,0,0,0,24.54h0a17.33,17.33,0,0,0,24.53,0h0A17.35,17.35,0,0,0,155.22,714.85Z" transform="translate(0)"/><path class="cls-5" d="M883.52,581.85h0a17.36,17.36,0,0,0-24.54,0h0a17.36,17.36,0,0,0,0,24.54h0a17.35,17.35,0,0,0,24.54,0h0A17.36,17.36,0,0,0,883.52,581.85Z" transform="translate(0)"/><path class="cls-4" d="M580.5,154.14h0a17.35,17.35,0,0,0-24.54,0h0a17.33,17.33,0,0,0,0,24.53h0a17.35,17.35,0,0,0,24.54,0h0A17.35,17.35,0,0,0,580.5,154.14Z" transform="translate(0)"/><path class="cls-5" d="M630.13,895.75h0a17.35,17.35,0,0,0-24.54,0h0a17.35,17.35,0,0,0,0,24.54h0a17.36,17.36,0,0,0,24.54,0h0A17.36,17.36,0,0,0,630.13,895.75Z" transform="translate(0)"/><path class="cls-5" d="M1448.48,405.7h0a10.23,10.23,0,0,0-14.46,0h0a10.23,10.23,0,0,0,0,14.46h0a10.23,10.23,0,0,0,14.46,0h0A10.23,10.23,0,0,0,1448.48,405.7Z" transform="translate(0)"/><path class="cls-5" d="M105.07,336h0a10.23,10.23,0,0,0-14.46,0h0a10.23,10.23,0,0,0,0,14.46h0a10.23,10.23,0,0,0,14.46,0h0A10.23,10.23,0,0,0,105.07,336Z" transform="translate(0)"/><path class="cls-5" d="M693.81,285.12h0a10.21,10.21,0,0,0-14.46,0h0a10.22,10.22,0,0,0,0,14.45h0a10.23,10.23,0,0,0,14.46,0h0A10.22,10.22,0,0,0,693.81,285.12Z" transform="translate(0)"/><path class="cls-3" d="M1436.75,244.8h0a10.23,10.23,0,0,0-14.46,0h0a10.23,10.23,0,0,0,0,14.46h0a10.23,10.23,0,0,0,14.46,0h0A10.23,10.23,0,0,0,1436.75,244.8Z" transform="translate(0)"/><path class="cls-3" d="M1016.94,54.84h0a10.22,10.22,0,0,0-14.45,0h0a10.2,10.2,0,0,0,0,14.45h0a10.2,10.2,0,0,0,14.45,0h0A10.22,10.22,0,0,0,1016.94,54.84Z" transform="translate(0)"/><path class="cls-3" d="M960.63,196.39h0a10.22,10.22,0,0,0-14.45,0h0a10.2,10.2,0,0,0,0,14.45h0a10.2,10.2,0,0,0,14.45,0h0A10.22,10.22,0,0,0,960.63,196.39Z" transform="translate(0)"/><path class="cls-3" d="M992.08,757.11h0a10.2,10.2,0,0,0-14.45,0h0a10.2,10.2,0,0,0,0,14.45h0a10.22,10.22,0,0,0,14.45,0h0A10.22,10.22,0,0,0,992.08,757.11Z" transform="translate(0)"/><rect class="cls-2" x="714.45" y="445.3" width="83.29" height="16.81" transform="translate(-24.08 864.63) rotate(-58.74)"/><rect class="cls-2" x="994.65" y="868.61" width="83.29" height="16.81" transform="translate(-316.48 762.79) rotate(-35.41)"/><rect class="cls-3" x="208.91" y="74.65" width="83.3" height="16.81" transform="translate(101.39 -134.72) rotate(37.25)"/><rect class="cls-2" x="229.25" y="688.95" width="83.3" height="16.81" transform="translate(477.38 -21.71) rotate(37.25)"/><rect class="cls-3" x="1297.89" y="334.83" width="83.3" height="16.81" transform="translate(481.04 -740.81) rotate(37.25)"/><path class="cls-5" d="M63.07,100.16h0a10.2,10.2,0,0,0-14.45,0h0a10.22,10.22,0,0,0,0,14.45h0a10.22,10.22,0,0,0,14.45,0h0A10.2,10.2,0,0,0,63.07,100.16Z" transform="translate(0)"/></svg>