<?xml version="1.0" standalone="no"?><svg xmlns="http://www.w3.org/2000/svg" viewBox="0 0 1440 320"><path fill="#6c63ff" fill-opacity="1" d="M0,288L30,272C60,256,120,224,180,176C240,128,300,64,360,48C420,32,480,64,540,101.3C600,139,660,181,720,186.7C780,192,840,160,900,170.7C960,181,1020,235,1080,245.3C1140,256,1200,224,1260,192C1320,160,1380,128,1410,112L1440,96L1440,0L1410,0C1380,0,1320,0,1260,0C1200,0,1140,0,1080,0C1020,0,960,0,900,0C840,0,780,0,720,0C660,0,600,0,540,0C480,0,420,0,360,0C300,0,240,0,180,0C120,0,60,0,30,0L0,0Z"></path></svg>